<svg xmlns="http://www.w3.org/2000/svg" viewBox="0 0 512 512">
	<path
		d="M406.905 72.758v53.895h-86.232V72.758c0-11.906 9.651-21.558 21.558-21.558h43.116c11.907 0 21.558 9.652 21.558 21.558zM169.769 51.2h-43.116c-11.906 0-21.558 9.651-21.558 21.558v53.895h86.232V72.758c0-11.906-9.652-21.558-21.558-21.558z"
		fill="#9b9b9b"/>
	<path d="M105.095 72.758h86.232v32.337h-86.232V72.758zm215.579 0v32.337h86.232V72.758h-86.232z" fill="#666"/>
	<path
		d="M164.432 407.731l-21.877 25.97A76.189 76.189 0 0184.286 460.8c-47.698 0-83.663-43.321-74.873-90.184l40.173-214.182c6.755-36.018 38.215-62.118 74.872-62.118h263.083c36.658 0 68.118 26.1 74.873 62.117l40.173 214.182c8.79 46.865-27.175 90.184-74.873 90.184a76.19 76.19 0 01-58.269-27.099l-21.877-25.97a76.189 76.189 0 00-58.269-27.099H222.7a76.19 76.19 0 00-58.268 27.1z"
		fill="#c1c1c1"/>
	<g fill="#9b9b9b">
		<path
			d="M502.588 370.616c8.79 46.865-27.175 90.184-74.873 90.184a76.19 76.19 0 01-58.269-27.099l-21.877-25.97a76.189 76.189 0 00-58.269-27.099h-66.599a76.19 76.19 0 00-58.269 27.099l-21.877 25.97A76.189 76.189 0 0184.286 460.8c-47.698 0-83.663-43.321-74.873-90.184l13.237-70.572c13.728 18.874 35.982 31.409 61.636 31.409a76.19 76.19 0 0058.269-27.099l21.877-25.97a76.189 76.189 0 0158.269-27.099H289.3a76.19 76.19 0 0158.269 27.099l21.877 25.97a76.189 76.189 0 0058.269 27.099c25.654 0 47.908-12.535 61.636-31.409l13.237 70.572zM272.169 169.769h-32.337c-8.929 0-16.168-7.239-16.168-16.168 0-8.929 7.239-16.168 16.168-16.168h32.337c8.929 0 16.168 7.239 16.168 16.168 0 8.928-7.239 16.168-16.168 16.168z"/>
	</g>
	<path
		d="M169.769 202.105v107.789c0 11.906-9.651 21.558-21.558 21.558s-21.558-9.651-21.558-21.558V202.105c0-11.906 9.651-21.558 21.558-21.558s21.558 9.652 21.558 21.558zm118.568 75.453c0 11.906 9.651 21.558 21.558 21.558s21.558-9.651 21.558-21.558V256h-43.116v21.558zM396.126 256v21.558c0 11.906 9.651 21.558 21.558 21.558 11.906 0 21.558-9.651 21.558-21.558V256h-43.116zm-53.894 75.453c0 11.906 9.651 21.558 21.558 21.558 11.906 0 21.558-9.651 21.558-21.558v-21.558h-43.116v21.558zm0-107.79c0 11.906 9.651 21.558 21.558 21.558 11.906 0 21.558-9.651 21.558-21.558v-21.558h-43.116v21.558z"
		fill="#666"/>
	<path
		d="M223.663 256c0 11.906-9.651 21.558-21.558 21.558H94.316c-11.906 0-21.558-9.651-21.558-21.558 0-11.906 9.651-21.558 21.558-21.558h107.789c11.907 0 21.558 9.652 21.558 21.558z"
		fill="#828282"/>
	<path
		d="M363.79 180.548c11.906 0 21.558 9.651 21.558 21.558 0 11.906-9.651 21.558-21.558 21.558-11.906 0-21.558-9.651-21.558-21.558s9.651-21.558 21.558-21.558z"
		fill="#ffe954"/>
	<path
		d="M363.79 288.337c11.906 0 21.558 9.651 21.558 21.558s-9.651 21.558-21.558 21.558c-11.906 0-21.558-9.651-21.558-21.558s9.651-21.558 21.558-21.558z"
		fill="#91f18b"/>
	<path
		d="M288.337 256c0-11.906 9.651-21.558 21.558-21.558s21.558 9.651 21.558 21.558c0 11.906-9.651 21.558-21.558 21.558s-21.558-9.651-21.558-21.558z"
		fill="#82cead"/>
	<path
		d="M396.126 256c0-11.906 9.651-21.558 21.558-21.558 11.906 0 21.558 9.651 21.558 21.558 0 11.906-9.651 21.558-21.558 21.558-11.906 0-21.558-9.651-21.558-21.558z"
		fill="#ff8355"/>
	<path
		d="M296.423 153.6c0-13.372-10.88-24.253-24.254-24.253h-32.338c-13.373 0-24.254 10.88-24.254 24.253 0 13.372 10.879 24.253 24.254 24.253h32.338c13.374 0 24.254-10.88 24.254-24.253zm-64.677 0c0-4.458 3.626-8.084 8.084-8.084h32.338c4.458 0 8.084 3.626 8.084 8.084s-3.626 8.084-8.084 8.084h-32.337c-4.457 0-8.085-3.626-8.085-8.084zM80.835 256c0 7.43 6.045 13.474 13.475 13.474h32.338a8.083 8.083 0 018.084 8.084 8.084 8.084 0 01-8.084 8.084H94.31c-16.345 0-29.643-13.298-29.643-29.642s13.297-29.642 29.643-29.642h24.254v-24.253c0-16.344 13.298-29.642 29.643-29.642s29.643 13.298 29.643 29.642a8.084 8.084 0 01-8.084 8.084 8.083 8.083 0 01-8.084-8.084c0-7.43-6.045-13.474-13.475-13.474s-13.475 6.044-13.475 13.474v32.337a8.084 8.084 0 01-8.084 8.084H94.31c-7.43.001-13.475 6.044-13.475 13.474zm37.728 53.895a8.084 8.084 0 018.084-8.084 8.083 8.083 0 018.084 8.084c0 7.43 6.045 13.474 13.475 13.474s13.475-6.044 13.475-13.474v-32.337a8.084 8.084 0 018.084-8.084h32.338c7.43 0 13.475-6.044 13.475-13.474 0-7.43-6.045-13.474-13.475-13.474h-32.338a8.083 8.083 0 01-8.084-8.084 8.084 8.084 0 018.084-8.084h32.338c16.345 0 29.643 13.298 29.643 29.642s-13.298 29.642-29.643 29.642H177.85v24.253c0 16.344-13.298 29.642-29.643 29.642s-29.644-13.298-29.644-29.642zm245.232-137.432c-16.345 0-29.643 13.298-29.643 29.642s13.298 29.642 29.643 29.642 29.643-13.298 29.643-29.642-13.298-29.642-29.643-29.642zm0 43.116c-7.43 0-13.475-6.044-13.475-13.474 0-7.43 6.045-13.474 13.475-13.474s13.475 6.044 13.475 13.474c0 7.43-6.045 13.474-13.475 13.474zm128.782 222.854c-16.061 19.353-39.699 30.452-64.854 30.452-24.913 0-48.406-10.926-64.456-29.975l-21.878-25.971a67.966 67.966 0 00-52.088-24.224H256c-4.465 0-8.084-3.618-8.084-8.084s3.62-8.084 8.084-8.084h33.301c24.914 0 48.407 10.926 64.456 29.975l21.878 25.971c12.969 15.394 31.954 24.224 52.088 24.224 20.329 0 39.433-8.969 52.41-24.608 12.971-15.631 18.263-36.042 14.519-56.001l-40.174-214.183c-6.034-32.173-34.183-55.523-66.931-55.523h-2.194c-4.466 0-8.084-3.618-8.084-8.084s3.62-8.084 8.084-8.084h2.194c3.816 0 7.583.257 11.28.753V72.758c0-7.43-6.045-13.474-13.475-13.474h-43.118c-7.43 0-13.475 6.044-13.475 13.474v13.474h24.254c4.466 0 8.084 3.618 8.084 8.084s-3.62 8.084-8.084 8.084H169.765c-4.465 0-8.084-3.618-8.084-8.084s3.62-8.084 8.084-8.084h13.475V72.758c0-7.43-6.045-13.474-13.475-13.474h-43.118c-7.43 0-13.475 6.044-13.475 13.474v14.227a84.638 84.638 0 0111.28-.753h12.974c4.465 0 8.084 3.618 8.084 8.084s-3.62 8.084-8.084 8.084h-12.974c-32.748 0-60.896 23.35-66.931 55.523L17.348 372.107c-3.744 19.96 1.548 40.371 14.519 56.001 12.979 15.639 32.082 24.608 52.41 24.608 20.135 0 39.12-8.829 52.088-24.224l21.878-25.971c16.048-19.05 39.54-29.975 64.455-29.975 4.465 0 8.084 3.618 8.084 8.084s-3.62 8.084-8.084 8.084c-20.135 0-39.12 8.829-52.088 24.224l-21.878 25.971c-16.047 19.05-39.54 29.975-64.455 29.975-25.155 0-48.793-11.099-64.854-30.452C3.371 419.09-3.179 393.828 1.455 369.125L41.63 154.942c5.706-30.419 27.386-54.465 55.374-64.12V72.758c0-16.344 13.298-29.642 29.643-29.642h43.118c16.345 0 29.643 13.298 29.643 29.642v13.474h113.184V72.758c0-16.344 13.298-29.642 29.643-29.642h43.118c16.345 0 29.643 13.298 29.643 29.642v18.064c27.986 9.655 49.667 33.701 55.373 64.12l40.175 214.183c4.635 24.702-1.914 49.965-17.967 69.308zm-74.885-152.791c16.345 0 29.643-13.298 29.643-29.642s-13.298-29.642-29.643-29.642-29.643 13.298-29.643 29.642 13.298 29.642 29.643 29.642zm0-43.115c7.43 0 13.475 6.044 13.475 13.474 0 7.43-6.045 13.474-13.475 13.474S404.217 263.43 404.217 256s6.045-13.473 13.475-13.473zm-107.794-16.169c-16.345 0-29.643 13.298-29.643 29.642s13.298 29.642 29.643 29.642 29.643-13.298 29.643-29.642-13.299-29.642-29.643-29.642zm0 43.116c-7.43 0-13.475-6.044-13.475-13.474 0-7.43 6.045-13.474 13.475-13.474s13.475 6.044 13.475 13.474c0 7.43-6.045 13.474-13.475 13.474zm53.897 10.779c-16.345 0-29.643 13.298-29.643 29.642s13.298 29.642 29.643 29.642 29.643-13.298 29.643-29.642-13.298-29.642-29.643-29.642zm0 43.116c-7.43 0-13.475-6.044-13.475-13.474s6.045-13.474 13.475-13.474 13.475 6.044 13.475 13.474-6.045 13.474-13.475 13.474z"/>
</svg>
