<?xml version="1.0" encoding="utf-8"?>
<svg version="1.1" id="Layer_1" xmlns="http://www.w3.org/2000/svg" xmlns:xlink="http://www.w3.org/1999/xlink" x="0px" y="0px"
	 viewBox="0 0 66 66" style="enable-background:new 0 0 66 66;" xml:space="preserve">
<style type="text/css">
	.st0{fill:#EA5150;}
	.st1{fill:#FEF6E4;}
</style>
<circle class="st0" cx="33" cy="33" r="32"/>
<g>
	<g>
		<path class="st1" d="M50.1,38.4c0.5,0,1.1-0.4,1.2-0.9l2.5-7.6c0.2-0.2,0.3-0.5,0.3-0.8l2.5-7.6c0.1-0.4,0.1-0.8-0.1-1.2
			c-0.3-0.3-0.7-0.5-1.1-0.5H13.6l-1.9-5.5c-0.3-0.7-1.1-1.1-1.7-0.8c-0.7,0.3-1.1,1.1-0.8,1.7L14,29.4c0,0.1,0.1,0.2,0.1,0.3
			L18.9,44c-2.1,0.7-3.7,2.7-3.7,5.1c0,2.9,2.4,5.4,5.4,5.4c2.9,0,5.4-2.4,5.4-5.4c0-1-0.3-1.9-0.7-2.7h17.6
			c-0.5,0.8-0.7,1.7-0.7,2.7c0,2.9,2.4,5.4,5.4,5.4c2.9,0,5.4-2.4,5.4-5.4c0-2.9-2.4-5.4-5.4-5.4H21.7l-1.8-5.4H50.1z M17.2,30.3
			h14.9l0.1,5.4H19L17.2,30.3z M49.1,35.7H35l-0.1-5.4h16.1L49.1,35.7z M51.8,27.7h-17l-0.1-5.4h18.9L51.8,27.7z M31.9,22.3l0.1,5.4
			H16.3l-1.8-5.4H31.9z M23.3,49.1c0,1.5-1.2,2.7-2.7,2.7S18,50.5,18,49.1s1.2-2.7,2.7-2.7S23.3,47.6,23.3,49.1z M50.1,49.1
			c0,1.5-1.2,2.7-2.7,2.7s-2.7-1.2-2.7-2.7s1.2-2.7,2.7-2.7S50.1,47.6,50.1,49.1z"/>
	</g>
</g>
</svg>
